<?xml version="1.0" encoding="UTF-8"?>
<svg viewBox="0 0 512 512" xmlns="http://www.w3.org/2000/svg">
<circle cx="156.0" cy="320.1" r="2.4" fill="#2d2d2d"/>
    <circle cx="158.0" cy="320.2" r="2.6" fill="#2d2d2d"/>
    <circle cx="142.3" cy="320.5" r="2.6" fill="#2d2d2d"/>
    <circle cx="134.3" cy="320.8" r="2.6" fill="#2d2d2d"/>
    <circle cx="146.1" cy="322.2" r="2.5" fill="#2d2d2d"/>
    <circle cx="153.8" cy="322.6" r="2.8" fill="#2d2d2d"/>
    <circle cx="138.2" cy="326.9" r="2.7" fill="#2d2d2d"/>
    <circle cx="157.9" cy="327.3" r="2.6" fill="#2d2d2d"/>
    <circle cx="131.9" cy="328.0" r="2.7" fill="#2d2d2d"/>
    <circle cx="132.3" cy="329.6" r="2.7" fill="#2d2d2d"/>
    <circle cx="155.7" cy="329.7" r="2.5" fill="#2d2d2d"/>
    <circle cx="160.9" cy="329.9" r="2.8" fill="#2d2d2d"/>
    <circle cx="153.7" cy="333.3" r="2.9" fill="#2d2d2d"/>
    <circle cx="165.7" cy="333.6" r="2.6" fill="#2d2d2d"/>
    <circle cx="155.4" cy="335.3" r="2.5" fill="#2d2d2d"/>
    <circle cx="160.3" cy="335.3" r="2.6" fill="#2d2d2d"/>
    <circle cx="169.7" cy="335.5" r="2.9" fill="#2d2d2d"/>
    <circle cx="163.9" cy="337.5" r="2.9" fill="#2d2d2d"/>
    <circle cx="168.3" cy="338.5" r="3.0" fill="#2d2d2d"/>
    <circle cx="151.4" cy="338.5" r="3.0" fill="#2d2d2d"/>
    <circle cx="155.1" cy="339.3" r="2.9" fill="#2d2d2d"/>
    <circle cx="165.9" cy="341.3" r="2.6" fill="#2d2d2d"/>
    <circle cx="167.2" cy="341.5" r="2.8" fill="#2d2d2d"/>
    <circle cx="151.6" cy="342.6" r="3.2" fill="#2d2d2d"/>
    <circle cx="156.7" cy="343.9" r="3.0" fill="#2d2d2d"/>
    <circle cx="182.0" cy="346.1" r="3.1" fill="#2d2d2d"/>
    <circle cx="159.3" cy="347.0" r="2.8" fill="#2d2d2d"/>
    <circle cx="175.1" cy="347.3" r="2.9" fill="#2d2d2d"/>
    <circle cx="190.8" cy="348.6" r="3.1" fill="#2d2d2d"/>
    <circle cx="178.3" cy="349.7" r="3.1" fill="#2d2d2d"/>
    <circle cx="195.5" cy="350.1" r="3.1" fill="#2d2d2d"/>
    <circle cx="199.7" cy="353.3" r="2.9" fill="#2d2d2d"/>
    <circle cx="192.8" cy="353.9" r="3.1" fill="#2d2d2d"/>
    <circle cx="197.0" cy="354.2" r="3.2" fill="#2d2d2d"/>
    <circle cx="196.5" cy="355.8" r="3.1" fill="#2d2d2d"/>
    <circle cx="184.3" cy="356.4" r="2.9" fill="#2d2d2d"/>
    <circle cx="203.6" cy="357.0" r="3.1" fill="#2d2d2d"/>
    <circle cx="203.5" cy="361.2" r="2.9" fill="#2d2d2d"/>
    <circle cx="204.5" cy="361.2" r="2.9" fill="#2d2d2d"/>
    <circle cx="196.3" cy="368.9" r="2.9" fill="#2d2d2d"/>
    <circle cx="212.9" cy="372.0" r="3.3" fill="#2d2d2d"/>
    <circle cx="217.7" cy="373.9" r="3.0" fill="#2d2d2d"/>
    <circle cx="229.8" cy="377.5" r="3.1" fill="#2d2d2d"/>
    <circle cx="231.5" cy="379.2" r="3.1" fill="#2d2d2d"/>
    <circle cx="230.7" cy="381.4" r="3.1" fill="#2d2d2d"/>
    <circle cx="234.6" cy="381.5" r="3.1" fill="#2d2d2d"/>
    <circle cx="235.5" cy="382.4" r="3.2" fill="#2d2d2d"/>
    <circle cx="231.8" cy="383.1" r="3.2" fill="#2d2d2d"/>
    <circle cx="229.4" cy="384.7" r="3.1" fill="#2d2d2d"/>
      <circle cx="245.9" cy="389.7" r="2.8" fill="#2d2d2d"/>
    <circle cx="242.9" cy="392.7" r="3.0" fill="#2d2d2d"/>
    <circle cx="243.5" cy="388.5" r="2.9" fill="#2d2d2d"/>
    <circle cx="242.8" cy="388.9" r="2.9" fill="#2d2d2d"/>
    <circle cx="241.9" cy="388.2" r="3.0" fill="#2d2d2d"/>
    <circle cx="240.4" cy="387.3" r="3.0" fill="#2d2d2d"/><circle cx="167.9" cy="253.1" r="2.9" fill="#2d2d2d"/>
    <circle cx="152.6" cy="253.2" r="3.0" fill="#2d2d2d"/>
    <circle cx="158.2" cy="253.8" r="2.9" fill="#2d2d2d"/>
    <circle cx="169.9" cy="254.0" r="2.8" fill="#2d2d2d"/>
    <circle cx="173.3" cy="254.6" r="3.1" fill="#2d2d2d"/>
    <circle cx="168.4" cy="258.3" r="3.1" fill="#2d2d2d"/>
    <circle cx="172.0" cy="260.0" r="3.1" fill="#2d2d2d"/>
    <circle cx="153.6" cy="260.7" r="3.0" fill="#2d2d2d"/>
    <circle cx="166.9" cy="262.2" r="3.1" fill="#2d2d2d"/>
    <circle cx="157.4" cy="262.4" r="3.0" fill="#2d2d2d"/>
    <circle cx="175.0" cy="268.0" r="2.9" fill="#2d2d2d"/>
    <circle cx="178.7" cy="268.5" r="3.1" fill="#2d2d2d"/>
    <circle cx="179.4" cy="268.9" r="3.0" fill="#2d2d2d"/>
    <circle cx="164.4" cy="269.3" r="2.9" fill="#2d2d2d"/>
    <circle cx="182.7" cy="271.7" r="3.1" fill="#2d2d2d"/>
    <circle cx="173.8" cy="273.2" r="3.1" fill="#2d2d2d"/>
    <circle cx="157.2" cy="274.3" r="3.0" fill="#2d2d2d"/>
    <circle cx="165.7" cy="275.4" r="2.9" fill="#2d2d2d"/>
    <circle cx="160.1" cy="278.2" r="3.0" fill="#2d2d2d"/>
    <circle cx="172.4" cy="278.9" r="2.9" fill="#2d2d2d"/>
    <circle cx="187.7" cy="280.6" r="3.1" fill="#2d2d2d"/>
    <circle cx="168.1" cy="280.7" r="3.2" fill="#2d2d2d"/>
    <circle cx="170.6" cy="281.2" r="3.2" fill="#2d2d2d"/>
    <circle cx="178.9" cy="282.8" r="3.1" fill="#2d2d2d"/>
    <circle cx="163.8" cy="283.4" r="3.2" fill="#2d2d2d"/>
    <circle cx="182.0" cy="286.0" r="3.0" fill="#2d2d2d"/>
    <circle cx="192.2" cy="294.6" r="3.3" fill="#2d2d2d"/>
    <circle cx="177.0" cy="295.7" r="3.2" fill="#2d2d2d"/>
    <circle cx="173.7" cy="296.3" r="3.1" fill="#2d2d2d"/>
    <circle cx="193.9" cy="299.3" r="3.3" fill="#2d2d2d"/>
    <circle cx="189.4" cy="299.6" r="3.1" fill="#2d2d2d"/>
    <circle cx="175.8" cy="300.2" r="2.9" fill="#2d2d2d"/>
    <circle cx="174.4" cy="300.6" r="3.0" fill="#2d2d2d"/>
    <circle cx="197.9" cy="301.2" r="3.3" fill="#2d2d2d"/>
    <circle cx="168.7" cy="301.6" r="3.4" fill="#2d2d2d"/>
    <circle cx="192.6" cy="302.8" r="3.2" fill="#2d2d2d"/>
    <circle cx="179.2" cy="303.4" r="3.1" fill="#2d2d2d"/>
    <circle cx="169.8" cy="304.8" r="3.2" fill="#2d2d2d"/>
    <circle cx="196.8" cy="305.8" r="3.4" fill="#2d2d2d"/>
    <circle cx="180.8" cy="308.1" r="3.2" fill="#2d2d2d"/>
    <circle cx="173.3" cy="308.1" r="3.3" fill="#2d2d2d"/>
    <circle cx="201.7" cy="310.2" r="3.7" fill="#2d2d2d"/>
    <circle cx="198.0" cy="311.8" r="3.5" fill="#2d2d2d"/>
    <circle cx="194.8" cy="312.8" r="3.6" fill="#2d2d2d"/>
    <circle cx="196.2" cy="312.8" r="3.2" fill="#2d2d2d"/>
    <circle cx="204.6" cy="314.5" r="3.2" fill="#2d2d2d"/>
    <circle cx="204.0" cy="314.6" r="3.2" fill="#2d2d2d"/>
    <circle cx="202.2" cy="314.8" r="3.5" fill="#2d2d2d"/>
    <circle cx="207.0" cy="316.6" r="3.3" fill="#2d2d2d"/>
    <circle cx="195.7" cy="317.0" r="3.3" fill="#2d2d2d"/>
    <circle cx="195.1" cy="317.5" r="3.8" fill="#2d2d2d"/>
    <circle cx="199.7" cy="320.0" r="3.1" fill="#2d2d2d"/>
    <circle cx="195.2" cy="320.6" r="3.5" fill="#2d2d2d"/>
    <circle cx="186.1" cy="321.2" r="3.5" fill="#2d2d2d"/>
    <circle cx="190.2" cy="322.9" r="3.7" fill="#2d2d2d"/>
    <circle cx="197.0" cy="325.1" r="3.4" fill="#2d2d2d"/>
    <circle cx="190.5" cy="326.8" r="3.4" fill="#2d2d2d"/>
    <circle cx="215.3" cy="326.8" r="3.4" fill="#2d2d2d"/>
    <circle cx="192.2" cy="327.0" r="3.6" fill="#2d2d2d"/>
    <circle cx="202.8" cy="330.0" r="3.7" fill="#2d2d2d"/>
    <circle cx="193.8" cy="331.9" r="3.7" fill="#2d2d2d"/>
    <circle cx="192.7" cy="332.0" r="3.6" fill="#2d2d2d"/>
    <circle cx="216.7" cy="332.6" r="3.7" fill="#2d2d2d"/>
    <circle cx="199.9" cy="333.4" r="3.8" fill="#2d2d2d"/>
    <circle cx="213.7" cy="334.4" r="3.2" fill="#2d2d2d"/>
    <circle cx="211.7" cy="336.1" r="3.7" fill="#2d2d2d"/>
    <circle cx="196.2" cy="336.2" r="3.4" fill="#2d2d2d"/>
    <circle cx="213.2" cy="337.7" r="3.7" fill="#2d2d2d"/>
    <circle cx="218.6" cy="341.2" r="3.6" fill="#2d2d2d"/>
    <circle cx="218.8" cy="341.7" r="3.8" fill="#2d2d2d"/>
    <circle cx="221.6" cy="343.0" r="3.8" fill="#2d2d2d"/>
    <circle cx="206.2" cy="346.7" r="3.8" fill="#2d2d2d"/>
    <circle cx="223.9" cy="349.4" r="3.9" fill="#2d2d2d"/>
    <circle cx="210.8" cy="351.4" r="3.7" fill="#2d2d2d"/>
    <circle cx="231.2" cy="355.8" r="3.8" fill="#2d2d2d"/>
    <circle cx="214.7" cy="356.3" r="4.0" fill="#2d2d2d"/>
    <circle cx="219.4" cy="358.0" r="3.5" fill="#2d2d2d"/>
    <circle cx="224.5" cy="358.5" r="3.4" fill="#2d2d2d"/>
    <circle cx="224.6" cy="367.1" r="3.6" fill="#2d2d2d"/>
    <circle cx="226.7" cy="369.6" r="3.9" fill="#2d2d2d"/>
    <circle cx="234.6" cy="370.9" r="3.7" fill="#2d2d2d"/>
    <circle cx="237.3" cy="371.6" r="3.7" fill="#2d2d2d"/>
      <circle cx="250.6" cy="386.4" r="3.5" fill="#2d2d2d"/>
    <circle cx="248.3" cy="386.6" r="3.1" fill="#2d2d2d"/>
    <circle cx="247.5" cy="385.4" r="3.1" fill="#2d2d2d"/>
    <circle cx="244.8" cy="386.8" r="3.4" fill="#2d2d2d"/>
    <circle cx="244.3" cy="384.8" r="3.3" fill="#2d2d2d"/>
    <circle cx="245.3" cy="382.5" r="3.4" fill="#2d2d2d"/><circle cx="213.7" cy="207.5" r="3.1" fill="#2d2d2d"/>
    <circle cx="216.6" cy="208.8" r="3.1" fill="#2d2d2d"/>
    <circle cx="218.8" cy="209.4" r="2.9" fill="#2d2d2d"/>
    <circle cx="220.1" cy="209.7" r="3.1" fill="#2d2d2d"/>
    <circle cx="210.9" cy="212.3" r="3.2" fill="#2d2d2d"/>
    <circle cx="218.9" cy="212.3" r="3.1" fill="#2d2d2d"/>
    <circle cx="201.8" cy="212.9" r="3.1" fill="#2d2d2d"/>
    <circle cx="216.2" cy="213.3" r="3.0" fill="#2d2d2d"/>
    <circle cx="204.2" cy="215.6" r="3.1" fill="#2d2d2d"/>
    <circle cx="218.7" cy="216.5" r="3.1" fill="#2d2d2d"/>
    <circle cx="223.8" cy="220.8" r="3.1" fill="#2d2d2d"/>
    <circle cx="205.2" cy="222.4" r="3.2" fill="#2d2d2d"/>
    <circle cx="213.4" cy="222.4" r="3.1" fill="#2d2d2d"/>
    <circle cx="212.2" cy="224.5" r="3.2" fill="#2d2d2d"/>
    <circle cx="228.2" cy="225.1" r="3.1" fill="#2d2d2d"/>
    <circle cx="226.2" cy="227.2" r="3.3" fill="#2d2d2d"/>
    <circle cx="212.3" cy="230.0" r="3.0" fill="#2d2d2d"/>
    <circle cx="210.9" cy="230.2" r="3.3" fill="#2d2d2d"/>
    <circle cx="231.1" cy="230.7" r="3.1" fill="#2d2d2d"/>
    <circle cx="221.5" cy="230.8" r="3.2" fill="#2d2d2d"/>
    <circle cx="213.1" cy="231.1" r="3.1" fill="#2d2d2d"/>
    <circle cx="212.8" cy="231.6" r="3.1" fill="#2d2d2d"/>
    <circle cx="225.4" cy="232.4" r="3.0" fill="#2d2d2d"/>
    <circle cx="206.9" cy="232.8" r="3.1" fill="#2d2d2d"/>
    <circle cx="220.1" cy="232.8" r="3.4" fill="#2d2d2d"/>
    <circle cx="203.1" cy="233.6" r="3.2" fill="#2d2d2d"/>
    <circle cx="220.2" cy="234.5" r="3.3" fill="#2d2d2d"/>
    <circle cx="226.8" cy="235.7" r="3.4" fill="#2d2d2d"/>
    <circle cx="226.9" cy="236.5" r="3.1" fill="#2d2d2d"/>
    <circle cx="234.9" cy="237.3" r="3.3" fill="#2d2d2d"/>
    <circle cx="219.5" cy="237.9" r="3.1" fill="#2d2d2d"/>
    <circle cx="225.9" cy="242.3" r="3.3" fill="#2d2d2d"/>
    <circle cx="216.2" cy="243.6" r="3.1" fill="#2d2d2d"/>
    <circle cx="224.1" cy="246.8" r="3.2" fill="#2d2d2d"/>
    <circle cx="226.8" cy="248.2" r="3.5" fill="#2d2d2d"/>
    <circle cx="232.8" cy="249.0" r="3.2" fill="#2d2d2d"/>
    <circle cx="234.6" cy="250.7" r="3.1" fill="#2d2d2d"/>
    <circle cx="207.6" cy="250.8" r="3.4" fill="#2d2d2d"/>
    <circle cx="229.0" cy="251.4" r="3.4" fill="#2d2d2d"/>
    <circle cx="204.5" cy="251.9" r="3.5" fill="#2d2d2d"/>
    <circle cx="230.0" cy="253.0" r="3.2" fill="#2d2d2d"/>
    <circle cx="235.9" cy="254.9" r="3.4" fill="#2d2d2d"/>
    <circle cx="216.3" cy="255.4" r="3.1" fill="#2d2d2d"/>
    <circle cx="223.0" cy="257.0" r="3.4" fill="#2d2d2d"/>
    <circle cx="207.6" cy="257.6" r="3.5" fill="#2d2d2d"/>
    <circle cx="238.0" cy="258.5" r="3.2" fill="#2d2d2d"/>
    <circle cx="224.5" cy="258.8" r="3.1" fill="#2d2d2d"/>
    <circle cx="235.2" cy="261.3" r="3.4" fill="#2d2d2d"/>
    <circle cx="210.6" cy="261.5" r="3.5" fill="#2d2d2d"/>
    <circle cx="227.1" cy="262.0" r="3.3" fill="#2d2d2d"/>
    <circle cx="229.1" cy="264.0" r="3.1" fill="#2d2d2d"/>
    <circle cx="208.8" cy="265.1" r="3.4" fill="#2d2d2d"/>
    <circle cx="227.5" cy="265.2" r="3.5" fill="#2d2d2d"/>
    <circle cx="213.8" cy="265.3" r="3.1" fill="#2d2d2d"/>
    <circle cx="229.9" cy="265.5" r="3.2" fill="#2d2d2d"/>
    <circle cx="239.1" cy="266.1" r="3.1" fill="#2d2d2d"/>
    <circle cx="216.6" cy="267.4" r="3.1" fill="#2d2d2d"/>
    <circle cx="216.7" cy="267.4" r="3.3" fill="#2d2d2d"/>
    <circle cx="232.0" cy="269.6" r="3.5" fill="#2d2d2d"/>
    <circle cx="211.7" cy="269.9" r="3.1" fill="#2d2d2d"/>
    <circle cx="210.4" cy="270.6" r="3.6" fill="#2d2d2d"/>
    <circle cx="238.3" cy="270.7" r="2.9" fill="#2d2d2d"/>
    <circle cx="234.0" cy="271.8" r="3.7" fill="#2d2d2d"/>
    <circle cx="218.3" cy="273.0" r="3.6" fill="#2d2d2d"/>
    <circle cx="215.2" cy="275.2" r="3.5" fill="#2d2d2d"/>
    <circle cx="219.7" cy="275.4" r="3.5" fill="#2d2d2d"/>
    <circle cx="229.6" cy="276.8" r="3.5" fill="#2d2d2d"/>
    <circle cx="235.1" cy="278.1" r="3.5" fill="#2d2d2d"/>
    <circle cx="219.6" cy="278.7" r="3.6" fill="#2d2d2d"/>
    <circle cx="215.2" cy="280.2" r="3.4" fill="#2d2d2d"/>
    <circle cx="223.4" cy="280.6" r="3.7" fill="#2d2d2d"/>
    <circle cx="224.2" cy="281.5" r="3.2" fill="#2d2d2d"/>
    <circle cx="237.7" cy="281.9" r="3.3" fill="#2d2d2d"/>
    <circle cx="234.4" cy="282.9" r="3.4" fill="#2d2d2d"/>
    <circle cx="217.3" cy="283.8" r="3.2" fill="#2d2d2d"/>
    <circle cx="223.4" cy="285.9" r="3.6" fill="#2d2d2d"/>
    <circle cx="225.9" cy="286.4" r="3.4" fill="#2d2d2d"/>
    <circle cx="237.5" cy="287.6" r="3.2" fill="#2d2d2d"/>
    <circle cx="240.4" cy="287.6" r="3.9" fill="#2d2d2d"/>
    <circle cx="225.3" cy="289.1" r="3.7" fill="#2d2d2d"/>
    <circle cx="242.2" cy="289.2" r="3.3" fill="#2d2d2d"/>
    <circle cx="229.2" cy="290.3" r="3.7" fill="#2d2d2d"/>
    <circle cx="217.2" cy="290.9" r="3.4" fill="#2d2d2d"/>
    <circle cx="243.0" cy="291.4" r="3.9" fill="#2d2d2d"/>
    <circle cx="238.9" cy="291.6" r="4.0" fill="#2d2d2d"/>
    <circle cx="234.8" cy="291.7" r="3.6" fill="#2d2d2d"/>
    <circle cx="218.6" cy="295.2" r="3.6" fill="#2d2d2d"/>
    <circle cx="217.1" cy="296.0" r="3.2" fill="#2d2d2d"/>
    <circle cx="226.5" cy="296.6" r="4.0" fill="#2d2d2d"/>
    <circle cx="239.1" cy="296.9" r="3.6" fill="#2d2d2d"/>
    <circle cx="227.2" cy="297.1" r="3.3" fill="#2d2d2d"/>
    <circle cx="228.1" cy="298.5" r="4.0" fill="#2d2d2d"/>
    <circle cx="242.2" cy="298.7" r="3.4" fill="#2d2d2d"/>
    <circle cx="226.6" cy="299.8" r="3.7" fill="#2d2d2d"/>
    <circle cx="231.4" cy="301.5" r="3.6" fill="#2d2d2d"/>
    <circle cx="238.2" cy="301.9" r="3.9" fill="#2d2d2d"/>
    <circle cx="230.6" cy="302.6" r="3.6" fill="#2d2d2d"/>
    <circle cx="224.0" cy="303.4" r="3.6" fill="#2d2d2d"/>
    <circle cx="233.7" cy="306.1" r="3.6" fill="#2d2d2d"/>
    <circle cx="233.8" cy="306.5" r="3.4" fill="#2d2d2d"/>
    <circle cx="224.7" cy="307.2" r="4.0" fill="#2d2d2d"/>
    <circle cx="243.1" cy="307.5" r="3.8" fill="#2d2d2d"/>
    <circle cx="241.3" cy="309.6" r="3.4" fill="#2d2d2d"/>
    <circle cx="245.8" cy="311.1" r="3.8" fill="#2d2d2d"/>
    <circle cx="224.3" cy="316.6" r="3.5" fill="#2d2d2d"/>
    <circle cx="238.3" cy="316.6" r="4.0" fill="#2d2d2d"/>
    <circle cx="229.4" cy="317.8" r="3.5" fill="#2d2d2d"/>
    <circle cx="243.5" cy="318.1" r="4.0" fill="#2d2d2d"/>
    <circle cx="245.4" cy="318.4" r="3.8" fill="#2d2d2d"/>
    <circle cx="242.6" cy="319.0" r="4.0" fill="#2d2d2d"/>
    <circle cx="226.6" cy="320.7" r="3.7" fill="#2d2d2d"/>
    <circle cx="245.9" cy="320.7" r="3.5" fill="#2d2d2d"/>
    <circle cx="230.1" cy="322.2" r="4.0" fill="#2d2d2d"/>
    <circle cx="241.5" cy="323.0" r="3.6" fill="#2d2d2d"/>
    <circle cx="244.6" cy="324.9" r="4.0" fill="#2d2d2d"/>
    <circle cx="230.7" cy="325.1" r="4.0" fill="#2d2d2d"/>
    <circle cx="243.0" cy="325.2" r="3.7" fill="#2d2d2d"/>
    <circle cx="243.2" cy="328.6" r="4.1" fill="#2d2d2d"/>
    <circle cx="232.2" cy="330.3" r="4.2" fill="#2d2d2d"/>
    <circle cx="239.3" cy="331.4" r="4.0" fill="#2d2d2d"/>
    <circle cx="242.8" cy="331.4" r="3.8" fill="#2d2d2d"/>
    <circle cx="246.9" cy="339.2" r="4.2" fill="#2d2d2d"/>
    <circle cx="247.2" cy="342.2" r="4.3" fill="#2d2d2d"/>
    <circle cx="241.0" cy="354.3" r="3.8" fill="#2d2d2d"/>
    <circle cx="251.3" cy="355.8" r="4.3" fill="#2d2d2d"/>
    <circle cx="238.7" cy="356.2" r="4.4" fill="#2d2d2d"/>
    <circle cx="241.0" cy="359.2" r="4.5" fill="#2d2d2d"/>
    <circle cx="247.5" cy="361.2" r="3.9" fill="#2d2d2d"/>
    <circle cx="247.3" cy="362.2" r="4.3" fill="#2d2d2d"/>
      <circle cx="251.2" cy="383.7" r="3.6" fill="#2d2d2d"/>
    <circle cx="254.7" cy="381.1" r="3.4" fill="#2d2d2d"/>
    <circle cx="253.8" cy="380.9" r="3.5" fill="#2d2d2d"/>
    <circle cx="253.7" cy="379.7" r="3.6" fill="#2d2d2d"/>
    <circle cx="253.2" cy="378.1" r="3.5" fill="#2d2d2d"/><circle cx="295.0" cy="204.2" r="3.5" fill="#2d2d2d"/>
    <circle cx="305.6" cy="204.2" r="3.4" fill="#2d2d2d"/>
    <circle cx="288.1" cy="204.7" r="3.4" fill="#2d2d2d"/>
    <circle cx="306.0" cy="205.4" r="3.3" fill="#2d2d2d"/>
    <circle cx="300.0" cy="208.0" r="3.3" fill="#2d2d2d"/>
    <circle cx="288.7" cy="208.7" r="3.6" fill="#2d2d2d"/>
    <circle cx="284.0" cy="211.2" r="3.3" fill="#2d2d2d"/>
    <circle cx="295.1" cy="211.6" r="3.3" fill="#2d2d2d"/>
    <circle cx="310.9" cy="212.6" r="3.4" fill="#2d2d2d"/>
    <circle cx="288.1" cy="213.1" r="3.3" fill="#2d2d2d"/>
    <circle cx="304.9" cy="213.1" r="3.5" fill="#2d2d2d"/>
    <circle cx="292.9" cy="213.6" r="3.3" fill="#2d2d2d"/>
    <circle cx="284.9" cy="214.4" r="3.5" fill="#2d2d2d"/>
    <circle cx="308.7" cy="215.5" r="3.7" fill="#2d2d2d"/>
    <circle cx="300.9" cy="216.4" r="3.7" fill="#2d2d2d"/>
    <circle cx="296.3" cy="217.2" r="3.5" fill="#2d2d2d"/>
    <circle cx="296.2" cy="218.0" r="3.5" fill="#2d2d2d"/>
    <circle cx="284.7" cy="218.1" r="3.3" fill="#2d2d2d"/>
    <circle cx="304.0" cy="219.9" r="3.6" fill="#2d2d2d"/>
    <circle cx="299.3" cy="220.1" r="3.5" fill="#2d2d2d"/>
    <circle cx="305.8" cy="220.1" r="3.5" fill="#2d2d2d"/>
    <circle cx="295.0" cy="220.5" r="3.8" fill="#2d2d2d"/>
    <circle cx="297.0" cy="221.5" r="3.7" fill="#2d2d2d"/>
    <circle cx="307.4" cy="222.7" r="3.4" fill="#2d2d2d"/>
    <circle cx="285.0" cy="223.8" r="3.6" fill="#2d2d2d"/>
    <circle cx="297.4" cy="223.8" r="3.7" fill="#2d2d2d"/>
    <circle cx="288.0" cy="223.9" r="3.4" fill="#2d2d2d"/>
    <circle cx="310.2" cy="224.4" r="3.8" fill="#2d2d2d"/>
    <circle cx="295.5" cy="227.4" r="3.7" fill="#2d2d2d"/>
    <circle cx="281.1" cy="227.5" r="3.4" fill="#2d2d2d"/>
    <circle cx="288.4" cy="227.8" r="3.5" fill="#2d2d2d"/>
    <circle cx="295.9" cy="228.4" r="3.7" fill="#2d2d2d"/>
    <circle cx="280.9" cy="228.5" r="3.5" fill="#2d2d2d"/>
    <circle cx="299.1" cy="228.9" r="3.8" fill="#2d2d2d"/>
    <circle cx="303.7" cy="230.4" r="3.7" fill="#2d2d2d"/>
    <circle cx="292.2" cy="231.1" r="3.6" fill="#2d2d2d"/>
    <circle cx="280.9" cy="231.3" r="3.5" fill="#2d2d2d"/>
    <circle cx="294.8" cy="233.6" r="3.9" fill="#2d2d2d"/>
    <circle cx="292.5" cy="233.9" r="3.5" fill="#2d2d2d"/>
    <circle cx="284.8" cy="234.3" r="3.8" fill="#2d2d2d"/>
    <circle cx="287.3" cy="234.3" r="3.6" fill="#2d2d2d"/>
    <circle cx="277.1" cy="236.2" r="3.7" fill="#2d2d2d"/>
    <circle cx="305.4" cy="237.8" r="3.6" fill="#2d2d2d"/>
    <circle cx="305.4" cy="238.1" r="3.8" fill="#2d2d2d"/>
    <circle cx="291.5" cy="239.8" r="3.7" fill="#2d2d2d"/>
    <circle cx="284.1" cy="240.2" r="3.9" fill="#2d2d2d"/>
    <circle cx="309.4" cy="240.5" r="3.6" fill="#2d2d2d"/>
    <circle cx="285.9" cy="240.9" r="3.9" fill="#2d2d2d"/>
    <circle cx="282.9" cy="241.6" r="3.7" fill="#2d2d2d"/>
    <circle cx="287.2" cy="243.7" r="3.7" fill="#2d2d2d"/>
    <circle cx="291.5" cy="243.9" r="3.5" fill="#2d2d2d"/>
    <circle cx="288.4" cy="245.0" r="4.0" fill="#2d2d2d"/>
    <circle cx="280.0" cy="246.8" r="3.6" fill="#2d2d2d"/>
    <circle cx="300.2" cy="247.3" r="3.9" fill="#2d2d2d"/>
    <circle cx="289.4" cy="248.3" r="3.7" fill="#2d2d2d"/>
    <circle cx="290.0" cy="248.3" r="3.9" fill="#2d2d2d"/>
    <circle cx="284.2" cy="248.4" r="3.8" fill="#2d2d2d"/>
    <circle cx="275.8" cy="249.4" r="3.6" fill="#2d2d2d"/>
    <circle cx="295.3" cy="251.2" r="4.0" fill="#2d2d2d"/>
    <circle cx="283.0" cy="252.1" r="4.0" fill="#2d2d2d"/>
    <circle cx="277.7" cy="253.5" r="3.6" fill="#2d2d2d"/>
    <circle cx="291.6" cy="255.0" r="3.7" fill="#2d2d2d"/>
    <circle cx="274.4" cy="257.2" r="3.7" fill="#2d2d2d"/>
    <circle cx="296.3" cy="257.2" r="3.7" fill="#2d2d2d"/>
    <circle cx="301.7" cy="257.4" r="3.7" fill="#2d2d2d"/>
    <circle cx="282.0" cy="257.6" r="4.0" fill="#2d2d2d"/>
    <circle cx="299.4" cy="257.7" r="3.7" fill="#2d2d2d"/>
    <circle cx="298.7" cy="258.4" r="3.6" fill="#2d2d2d"/>
    <circle cx="296.4" cy="258.7" r="3.9" fill="#2d2d2d"/>
    <circle cx="298.2" cy="259.1" r="3.7" fill="#2d2d2d"/>
    <circle cx="296.6" cy="259.2" r="4.0" fill="#2d2d2d"/>
    <circle cx="275.5" cy="259.3" r="4.0" fill="#2d2d2d"/>
    <circle cx="304.1" cy="259.4" r="4.0" fill="#2d2d2d"/>
    <circle cx="298.2" cy="262.4" r="3.6" fill="#2d2d2d"/>
    <circle cx="296.4" cy="262.5" r="3.8" fill="#2d2d2d"/>
    <circle cx="297.8" cy="262.8" r="3.9" fill="#2d2d2d"/>
    <circle cx="300.7" cy="262.8" r="3.8" fill="#2d2d2d"/>
    <circle cx="294.6" cy="263.1" r="3.8" fill="#2d2d2d"/>
    <circle cx="290.6" cy="263.9" r="3.8" fill="#2d2d2d"/>
    <circle cx="276.1" cy="265.8" r="4.0" fill="#2d2d2d"/>
    <circle cx="303.0" cy="266.4" r="4.0" fill="#2d2d2d"/>
    <circle cx="303.6" cy="266.9" r="4.0" fill="#2d2d2d"/>
    <circle cx="285.3" cy="267.7" r="3.6" fill="#2d2d2d"/>
    <circle cx="296.8" cy="268.0" r="3.9" fill="#2d2d2d"/>
    <circle cx="290.0" cy="268.3" r="4.1" fill="#2d2d2d"/>
    <circle cx="282.6" cy="268.4" r="4.0" fill="#2d2d2d"/>
    <circle cx="290.0" cy="268.8" r="4.0" fill="#2d2d2d"/>
    <circle cx="294.1" cy="270.3" r="3.6" fill="#2d2d2d"/>
    <circle cx="285.6" cy="273.1" r="4.0" fill="#2d2d2d"/>
    <circle cx="294.8" cy="274.3" r="4.2" fill="#2d2d2d"/>
    <circle cx="274.1" cy="275.9" r="3.7" fill="#2d2d2d"/>
    <circle cx="287.3" cy="276.4" r="4.0" fill="#2d2d2d"/>
    <circle cx="272.8" cy="277.6" r="3.9" fill="#2d2d2d"/>
    <circle cx="296.8" cy="277.8" r="3.7" fill="#2d2d2d"/>
    <circle cx="284.2" cy="278.3" r="4.0" fill="#2d2d2d"/>
    <circle cx="270.8" cy="279.1" r="3.8" fill="#2d2d2d"/>
    <circle cx="274.9" cy="279.2" r="4.0" fill="#2d2d2d"/>
    <circle cx="288.3" cy="279.7" r="3.7" fill="#2d2d2d"/>
    <circle cx="292.9" cy="284.3" r="3.7" fill="#2d2d2d"/>
    <circle cx="284.0" cy="285.4" r="4.1" fill="#2d2d2d"/>
    <circle cx="289.4" cy="286.8" r="4.0" fill="#2d2d2d"/>
    <circle cx="275.3" cy="287.8" r="3.8" fill="#2d2d2d"/>
    <circle cx="280.7" cy="288.0" r="4.1" fill="#2d2d2d"/>
    <circle cx="281.8" cy="288.3" r="4.1" fill="#2d2d2d"/>
    <circle cx="272.2" cy="293.1" r="3.9" fill="#2d2d2d"/>
    <circle cx="281.0" cy="294.1" r="3.8" fill="#2d2d2d"/>
    <circle cx="288.9" cy="294.3" r="4.0" fill="#2d2d2d"/>
    <circle cx="284.4" cy="294.8" r="3.8" fill="#2d2d2d"/>
    <circle cx="288.3" cy="295.1" r="3.9" fill="#2d2d2d"/>
    <circle cx="287.6" cy="295.9" r="4.4" fill="#2d2d2d"/>
    <circle cx="285.6" cy="296.1" r="4.2" fill="#2d2d2d"/>
    <circle cx="279.7" cy="296.2" r="4.4" fill="#2d2d2d"/>
    <circle cx="281.4" cy="296.3" r="4.4" fill="#2d2d2d"/>
    <circle cx="280.4" cy="297.0" r="4.2" fill="#2d2d2d"/>
    <circle cx="292.2" cy="297.3" r="4.0" fill="#2d2d2d"/>
    <circle cx="272.4" cy="299.5" r="4.1" fill="#2d2d2d"/>
    <circle cx="282.8" cy="299.6" r="4.0" fill="#2d2d2d"/>
    <circle cx="274.6" cy="300.5" r="4.1" fill="#2d2d2d"/>
    <circle cx="285.9" cy="300.7" r="4.2" fill="#2d2d2d"/>
    <circle cx="276.0" cy="301.0" r="3.9" fill="#2d2d2d"/>
    <circle cx="290.4" cy="302.5" r="4.5" fill="#2d2d2d"/>
    <circle cx="278.9" cy="303.5" r="4.0" fill="#2d2d2d"/>
    <circle cx="273.5" cy="304.4" r="4.0" fill="#2d2d2d"/>
    <circle cx="290.3" cy="305.7" r="4.3" fill="#2d2d2d"/>
    <circle cx="280.8" cy="306.4" r="4.1" fill="#2d2d2d"/>
    <circle cx="267.0" cy="308.4" r="4.5" fill="#2d2d2d"/>
    <circle cx="280.7" cy="308.9" r="4.0" fill="#2d2d2d"/>
    <circle cx="280.2" cy="309.4" r="4.6" fill="#2d2d2d"/>
    <circle cx="285.6" cy="310.9" r="4.0" fill="#2d2d2d"/>
    <circle cx="284.7" cy="311.8" r="4.0" fill="#2d2d2d"/>
    <circle cx="269.4" cy="312.8" r="3.9" fill="#2d2d2d"/>
    <circle cx="288.2" cy="316.0" r="4.3" fill="#2d2d2d"/>
    <circle cx="276.3" cy="319.9" r="4.5" fill="#2d2d2d"/>
    <circle cx="267.5" cy="321.5" r="4.4" fill="#2d2d2d"/>
    <circle cx="268.4" cy="322.8" r="4.4" fill="#2d2d2d"/>
    <circle cx="275.7" cy="324.7" r="4.6" fill="#2d2d2d"/>
    <circle cx="269.3" cy="324.9" r="4.7" fill="#2d2d2d"/>
    <circle cx="277.5" cy="324.9" r="4.0" fill="#2d2d2d"/>
    <circle cx="273.1" cy="326.4" r="4.1" fill="#2d2d2d"/>
    <circle cx="271.4" cy="327.1" r="4.5" fill="#2d2d2d"/>
    <circle cx="266.1" cy="327.4" r="4.1" fill="#2d2d2d"/>
    <circle cx="278.2" cy="330.0" r="4.8" fill="#2d2d2d"/>
    <circle cx="281.6" cy="331.1" r="4.5" fill="#2d2d2d"/>
    <circle cx="278.0" cy="331.7" r="4.6" fill="#2d2d2d"/>
    <circle cx="270.5" cy="331.9" r="4.7" fill="#2d2d2d"/>
    <circle cx="266.5" cy="333.2" r="4.3" fill="#2d2d2d"/>
    <circle cx="268.2" cy="333.7" r="4.4" fill="#2d2d2d"/>
    <circle cx="274.1" cy="334.0" r="4.4" fill="#2d2d2d"/>
    <circle cx="274.8" cy="334.9" r="4.1" fill="#2d2d2d"/>
    <circle cx="279.3" cy="335.9" r="4.1" fill="#2d2d2d"/>
    <circle cx="270.8" cy="336.3" r="4.0" fill="#2d2d2d"/>
    <circle cx="267.5" cy="338.8" r="4.4" fill="#2d2d2d"/>
    <circle cx="274.6" cy="339.3" r="4.0" fill="#2d2d2d"/>
    <circle cx="279.0" cy="340.8" r="4.0" fill="#2d2d2d"/>
    <circle cx="266.6" cy="344.0" r="4.5" fill="#2d2d2d"/>
    <circle cx="271.0" cy="345.1" r="4.9" fill="#2d2d2d"/>
    <circle cx="262.9" cy="348.0" r="4.6" fill="#2d2d2d"/>
    <circle cx="265.7" cy="348.9" r="4.7" fill="#2d2d2d"/>
    <circle cx="261.6" cy="351.9" r="4.5" fill="#2d2d2d"/>
    <circle cx="265.7" cy="356.8" r="5.0" fill="#2d2d2d"/>
    <circle cx="263.9" cy="359.6" r="4.8" fill="#2d2d2d"/>
    <circle cx="264.5" cy="363.2" r="4.8" fill="#2d2d2d"/>
    <circle cx="267.8" cy="364.5" r="5.0" fill="#2d2d2d"/>
    <circle cx="265.0" cy="364.8" r="4.6" fill="#2d2d2d"/>
      <circle cx="262.2" cy="384.6" r="4.1" fill="#2d2d2d"/>
    <circle cx="260.4" cy="383.1" r="3.8" fill="#2d2d2d"/>
    <circle cx="260.7" cy="381.7" r="3.7" fill="#2d2d2d"/>
    <circle cx="257.8" cy="380.8" r="4.0" fill="#2d2d2d"/>
    <circle cx="258.9" cy="379.0" r="4.0" fill="#2d2d2d"/>
    <circle cx="261.2" cy="378.1" r="4.0" fill="#2d2d2d"/><circle cx="362.2" cy="249.3" r="3.6" fill="#c45a2c"/>
    <circle cx="353.5" cy="250.9" r="3.7" fill="#c45a2c"/>
    <circle cx="347.4" cy="252.1" r="3.6" fill="#c45a2c"/>
    <circle cx="355.3" cy="252.1" r="3.7" fill="#c45a2c"/>
    <circle cx="340.5" cy="252.3" r="3.7" fill="#c45a2c"/>
    <circle cx="360.6" cy="252.7" r="3.6" fill="#c45a2c"/>
    <circle cx="352.1" cy="253.0" r="3.6" fill="#c45a2c"/>
    <circle cx="355.3" cy="257.7" r="3.6" fill="#c45a2c"/>
    <circle cx="359.4" cy="258.0" r="3.6" fill="#c45a2c"/>
    <circle cx="348.5" cy="258.4" r="3.5" fill="#c45a2c"/>
    <circle cx="359.2" cy="258.8" r="3.5" fill="#c45a2c"/>
    <circle cx="350.6" cy="258.9" r="3.6" fill="#c45a2c"/>
    <circle cx="339.7" cy="260.8" r="3.7" fill="#c45a2c"/>
    <circle cx="334.3" cy="261.5" r="3.9" fill="#c45a2c"/>
    <circle cx="353.6" cy="261.5" r="3.7" fill="#c45a2c"/>
    <circle cx="333.1" cy="261.9" r="3.8" fill="#c45a2c"/>
    <circle cx="356.7" cy="263.4" r="3.9" fill="#c45a2c"/>
    <circle cx="343.1" cy="264.4" r="3.8" fill="#c45a2c"/>
    <circle cx="334.7" cy="264.6" r="3.9" fill="#c45a2c"/>
    <circle cx="335.0" cy="265.1" r="3.5" fill="#c45a2c"/>
    <circle cx="331.9" cy="266.5" r="3.9" fill="#c45a2c"/>
    <circle cx="336.2" cy="266.7" r="3.7" fill="#c45a2c"/>
    <circle cx="361.4" cy="267.0" r="4.0" fill="#c45a2c"/>
    <circle cx="347.6" cy="267.5" r="3.9" fill="#c45a2c"/>
    <circle cx="349.1" cy="268.0" r="3.6" fill="#c45a2c"/>
    <circle cx="343.8" cy="268.3" r="3.5" fill="#c45a2c"/>
    <circle cx="349.5" cy="268.4" r="3.8" fill="#c45a2c"/>
    <circle cx="357.6" cy="268.5" r="3.9" fill="#c45a2c"/>
    <circle cx="329.9" cy="269.7" r="3.5" fill="#c45a2c"/>
    <circle cx="337.9" cy="270.4" r="3.8" fill="#c45a2c"/>
    <circle cx="334.1" cy="270.5" r="3.6" fill="#c45a2c"/>
    <circle cx="333.8" cy="271.4" r="4.0" fill="#c45a2c"/>
    <circle cx="333.0" cy="271.6" r="3.6" fill="#c45a2c"/>
    <circle cx="331.7" cy="271.7" r="3.6" fill="#c45a2c"/>
    <circle cx="333.2" cy="271.8" r="4.0" fill="#c45a2c"/>
    <circle cx="358.2" cy="272.0" r="4.0" fill="#c45a2c"/>
    <circle cx="335.2" cy="272.3" r="3.6" fill="#c45a2c"/>
    <circle cx="358.8" cy="272.4" r="4.0" fill="#c45a2c"/>
    <circle cx="329.3" cy="272.8" r="3.7" fill="#c45a2c"/>
    <circle cx="350.4" cy="272.8" r="4.0" fill="#c45a2c"/>
    <circle cx="331.3" cy="273.2" r="3.7" fill="#c45a2c"/>
    <circle cx="339.0" cy="273.2" r="4.0" fill="#c45a2c"/>
    <circle cx="327.8" cy="273.4" r="4.0" fill="#c45a2c"/>
    <circle cx="327.8" cy="273.4" r="4.0" fill="#c45a2c"/>
    <circle cx="348.1" cy="273.6" r="3.9" fill="#c45a2c"/>
    <circle cx="332.8" cy="273.8" r="3.9" fill="#c45a2c"/>
    <circle cx="330.8" cy="274.4" r="3.8" fill="#c45a2c"/>
    <circle cx="351.4" cy="274.4" r="3.6" fill="#c45a2c"/>
    <circle cx="345.6" cy="274.5" r="3.9" fill="#c45a2c"/>
    <circle cx="327.4" cy="275.4" r="3.7" fill="#c45a2c"/>
    <circle cx="346.9" cy="275.7" r="4.0" fill="#c45a2c"/>
    <circle cx="353.6" cy="276.0" r="3.9" fill="#c45a2c"/>
    <circle cx="330.0" cy="277.1" r="4.0" fill="#c45a2c"/>
    <circle cx="326.1" cy="277.2" r="4.0" fill="#c45a2c"/>
    <circle cx="355.7" cy="277.3" r="3.6" fill="#c45a2c"/>
    <circle cx="360.5" cy="278.2" r="3.8" fill="#c45a2c"/>
    <circle cx="327.2" cy="278.8" r="3.7" fill="#c45a2c"/>
    <circle cx="342.1" cy="280.5" r="4.0" fill="#c45a2c"/>
    <circle cx="335.4" cy="281.3" r="3.9" fill="#c45a2c"/>
    <circle cx="330.7" cy="281.5" r="3.8" fill="#c45a2c"/>
    <circle cx="339.3" cy="283.7" r="3.6" fill="#c45a2c"/>
    <circle cx="325.5" cy="284.2" r="4.0" fill="#c45a2c"/>
    <circle cx="321.0" cy="285.1" r="3.9" fill="#c45a2c"/>
    <circle cx="351.4" cy="285.2" r="4.0" fill="#c45a2c"/>
    <circle cx="347.0" cy="285.5" r="4.2" fill="#c45a2c"/>
    <circle cx="320.9" cy="285.7" r="4.1" fill="#c45a2c"/>
    <circle cx="336.2" cy="286.6" r="3.8" fill="#c45a2c"/>
    <circle cx="341.5" cy="287.1" r="4.2" fill="#c45a2c"/>
    <circle cx="346.1" cy="287.2" r="3.9" fill="#c45a2c"/>
    <circle cx="327.3" cy="287.5" r="4.0" fill="#c45a2c"/>
    <circle cx="349.6" cy="289.2" r="4.2" fill="#c45a2c"/>
    <circle cx="329.1" cy="289.3" r="3.7" fill="#c45a2c"/>
    <circle cx="331.9" cy="289.5" r="4.0" fill="#c45a2c"/>
    <circle cx="347.7" cy="289.6" r="4.2" fill="#c45a2c"/>
    <circle cx="317.5" cy="290.3" r="3.7" fill="#c45a2c"/>
    <circle cx="348.2" cy="290.9" r="3.9" fill="#c45a2c"/>
    <circle cx="332.1" cy="291.0" r="4.1" fill="#c45a2c"/>
    <circle cx="333.4" cy="291.0" r="3.7" fill="#c45a2c"/>
    <circle cx="345.9" cy="291.4" r="3.9" fill="#c45a2c"/>
    <circle cx="324.7" cy="292.4" r="4.0" fill="#c45a2c"/>
    <circle cx="343.6" cy="293.5" r="4.2" fill="#c45a2c"/>
    <circle cx="331.8" cy="294.0" r="4.0" fill="#c45a2c"/>
    <circle cx="348.0" cy="295.1" r="3.7" fill="#c45a2c"/>
    <circle cx="320.7" cy="295.4" r="4.1" fill="#c45a2c"/>
    <circle cx="342.2" cy="296.2" r="3.9" fill="#c45a2c"/>
    <circle cx="329.9" cy="297.3" r="4.0" fill="#c45a2c"/>
    <circle cx="311.7" cy="297.8" r="4.0" fill="#c45a2c"/>
    <circle cx="314.0" cy="299.4" r="4.3" fill="#c45a2c"/>
    <circle cx="341.3" cy="299.4" r="4.0" fill="#c45a2c"/>
    <circle cx="310.6" cy="300.3" r="3.9" fill="#c45a2c"/>
    <circle cx="324.1" cy="301.3" r="4.1" fill="#c45a2c"/>
    <circle cx="319.3" cy="301.5" r="4.0" fill="#c45a2c"/>
    <circle cx="310.5" cy="301.9" r="4.1" fill="#c45a2c"/>
    <circle cx="314.6" cy="301.9" r="3.8" fill="#c45a2c"/>
    <circle cx="333.2" cy="302.2" r="4.5" fill="#c45a2c"/>
    <circle cx="336.1" cy="302.3" r="4.4" fill="#c45a2c"/>
    <circle cx="314.1" cy="302.8" r="4.4" fill="#c45a2c"/>
    <circle cx="313.8" cy="302.9" r="4.0" fill="#c45a2c"/>
    <circle cx="311.6" cy="303.2" r="4.1" fill="#c45a2c"/>
    <circle cx="312.8" cy="304.0" r="4.5" fill="#c45a2c"/>
    <circle cx="330.6" cy="304.1" r="4.4" fill="#c45a2c"/>
    <circle cx="336.9" cy="304.8" r="4.0" fill="#c45a2c"/>
    <circle cx="318.6" cy="305.5" r="4.0" fill="#c45a2c"/>
    <circle cx="313.4" cy="305.8" r="4.1" fill="#c45a2c"/>
    <circle cx="319.4" cy="306.0" r="4.3" fill="#c45a2c"/>
    <circle cx="326.2" cy="306.7" r="4.5" fill="#c45a2c"/>
    <circle cx="327.2" cy="306.7" r="4.0" fill="#c45a2c"/>
    <circle cx="308.8" cy="307.2" r="4.2" fill="#c45a2c"/>
    <circle cx="312.9" cy="308.6" r="4.2" fill="#c45a2c"/>
    <circle cx="337.3" cy="309.1" r="4.0" fill="#c45a2c"/>
    <circle cx="325.8" cy="311.1" r="3.9" fill="#c45a2c"/>
    <circle cx="319.4" cy="311.4" r="4.6" fill="#c45a2c"/>
    <circle cx="317.2" cy="317.1" r="4.0" fill="#c45a2c"/>
    <circle cx="310.4" cy="317.7" r="4.0" fill="#c45a2c"/>
    <circle cx="311.0" cy="318.2" r="4.4" fill="#c45a2c"/>
    <circle cx="324.1" cy="318.3" r="4.0" fill="#c45a2c"/>
    <circle cx="300.2" cy="318.7" r="4.4" fill="#c45a2c"/>
    <circle cx="329.1" cy="319.4" r="4.4" fill="#c45a2c"/>
    <circle cx="324.8" cy="319.7" r="4.7" fill="#c45a2c"/>
    <circle cx="321.8" cy="319.9" r="4.6" fill="#c45a2c"/>
    <circle cx="299.2" cy="321.1" r="4.7" fill="#c45a2c"/>
    <circle cx="310.6" cy="322.0" r="4.7" fill="#c45a2c"/>
    <circle cx="327.5" cy="322.7" r="4.0" fill="#c45a2c"/>
    <circle cx="322.7" cy="323.1" r="4.1" fill="#c45a2c"/>
    <circle cx="321.3" cy="323.4" r="4.6" fill="#c45a2c"/>
    <circle cx="325.1" cy="324.1" r="4.3" fill="#c45a2c"/>
    <circle cx="319.0" cy="324.2" r="4.5" fill="#c45a2c"/>
    <circle cx="310.1" cy="326.8" r="4.4" fill="#c45a2c"/>
    <circle cx="296.1" cy="326.9" r="4.8" fill="#c45a2c"/>
    <circle cx="317.7" cy="327.2" r="4.9" fill="#c45a2c"/>
    <circle cx="297.7" cy="327.3" r="4.4" fill="#c45a2c"/>
    <circle cx="303.2" cy="328.2" r="4.0" fill="#c45a2c"/>
    <circle cx="294.4" cy="328.6" r="4.0" fill="#c45a2c"/>
    <circle cx="321.6" cy="328.6" r="4.7" fill="#c45a2c"/>
    <circle cx="317.9" cy="328.8" r="4.1" fill="#c45a2c"/>
    <circle cx="307.6" cy="329.6" r="4.5" fill="#c45a2c"/>
    <circle cx="321.1" cy="330.4" r="4.3" fill="#c45a2c"/>
    <circle cx="302.9" cy="330.9" r="4.8" fill="#c45a2c"/>
    <circle cx="318.4" cy="331.7" r="4.2" fill="#c45a2c"/>
    <circle cx="308.3" cy="333.5" r="4.0" fill="#c45a2c"/>
    <circle cx="300.3" cy="333.7" r="4.2" fill="#c45a2c"/>
    <circle cx="300.0" cy="333.8" r="4.7" fill="#c45a2c"/>
    <circle cx="302.5" cy="333.9" r="4.9" fill="#c45a2c"/>
    <circle cx="303.6" cy="334.0" r="4.8" fill="#c45a2c"/>
    <circle cx="307.5" cy="334.0" r="4.2" fill="#c45a2c"/>
    <circle cx="299.1" cy="334.5" r="4.2" fill="#c45a2c"/>
    <circle cx="307.2" cy="337.8" r="4.3" fill="#c45a2c"/>
    <circle cx="305.9" cy="338.6" r="4.9" fill="#c45a2c"/>
    <circle cx="292.0" cy="338.7" r="4.5" fill="#c45a2c"/>
    <circle cx="309.9" cy="339.7" r="4.5" fill="#c45a2c"/>
    <circle cx="311.1" cy="339.9" r="4.2" fill="#c45a2c"/>
    <circle cx="299.3" cy="342.3" r="4.7" fill="#c45a2c"/>
    <circle cx="298.4" cy="343.2" r="4.9" fill="#c45a2c"/>
    <circle cx="307.2" cy="343.9" r="5.0" fill="#c45a2c"/>
    <circle cx="301.5" cy="344.2" r="4.6" fill="#c45a2c"/>
    <circle cx="291.7" cy="344.4" r="4.8" fill="#c45a2c"/>
    <circle cx="290.3" cy="344.8" r="5.0" fill="#c45a2c"/>
    <circle cx="297.3" cy="346.1" r="4.6" fill="#c45a2c"/>
    <circle cx="289.1" cy="347.1" r="4.9" fill="#c45a2c"/>
    <circle cx="301.3" cy="348.0" r="4.3" fill="#c45a2c"/>
    <circle cx="291.5" cy="350.2" r="5.0" fill="#c45a2c"/>
    <circle cx="293.1" cy="350.6" r="4.9" fill="#c45a2c"/>
    <circle cx="296.2" cy="350.8" r="4.9" fill="#c45a2c"/>
    <circle cx="287.6" cy="351.6" r="5.0" fill="#c45a2c"/>
    <circle cx="288.4" cy="352.2" r="5.0" fill="#c45a2c"/>
    <circle cx="298.1" cy="352.5" r="4.3" fill="#c45a2c"/>
    <circle cx="287.9" cy="353.5" r="4.5" fill="#c45a2c"/>
    <circle cx="284.2" cy="353.9" r="4.3" fill="#c45a2c"/>
    <circle cx="299.4" cy="354.6" r="4.8" fill="#c45a2c"/>
    <circle cx="283.5" cy="355.8" r="4.7" fill="#c45a2c"/>
    <circle cx="292.6" cy="356.0" r="5.0" fill="#c45a2c"/>
    <circle cx="290.0" cy="356.2" r="5.0" fill="#c45a2c"/>
    <circle cx="297.3" cy="356.4" r="4.5" fill="#c45a2c"/>
    <circle cx="285.1" cy="356.6" r="5.1" fill="#c45a2c"/>
    <circle cx="292.1" cy="357.0" r="5.1" fill="#c45a2c"/>
    <circle cx="288.9" cy="358.9" r="4.4" fill="#c45a2c"/>
    <circle cx="285.3" cy="359.4" r="5.2" fill="#c45a2c"/>
    <circle cx="286.7" cy="365.3" r="4.6" fill="#c45a2c"/>
    <circle cx="284.4" cy="366.2" r="5.0" fill="#c45a2c"/>
    <circle cx="288.1" cy="366.9" r="5.3" fill="#c45a2c"/>
      <circle cx="264.4" cy="386.0" r="4.4" fill="#c45a2c"/>
    <circle cx="264.5" cy="384.9" r="4.0" fill="#c45a2c"/>
    <circle cx="267.1" cy="385.6" r="4.0" fill="#c45a2c"/>
    <circle cx="268.7" cy="385.2" r="4.1" fill="#c45a2c"/>
    <circle cx="268.3" cy="383.0" r="4.1" fill="#c45a2c"/>
    <circle cx="269.2" cy="382.7" r="4.5" fill="#c45a2c"/><path fill="#2d2d2d" d="M 256.0,400.0 C 261.8,393.9 293.8,367.7 319.7,347.1 C 319.7,347.1 351.5,320.7 372.3,307.2 C 372.3,307.2 382.7,301.9 392.1,306.8 C 392.1,306.8 396.9,322.1 388.9,330.8 C 388.9,330.8 369.6,346.4 332.4,365.2 C 332.4,365.2 298.0,388.0 272.0,393.0 C 269.0,394.0 261.0,394.0 256.0,400.0 Z"/>

</svg>